<svg id="Layer_3" data-name="Layer 3" xmlns="http://www.w3.org/2000/svg" viewBox="0 0 283.46 78.04"><defs><style>.cls-1{fill:#9ea700;}</style></defs><title>HHS_EN_groen_HEX</title><path class="cls-1" d="M128.84,72.74c-3.88,0-3.88-3-3.88-3.91V61.77h1.29V69c0,1.6.71,2.69,3,2.69,1.68,0,2.51-1.6,2.51-3.09v-6.8H133v6.89A3.8,3.8,0,0,1,128.84,72.74ZM140,72.53h-1.31V61.77h1.12l5.43,7.8a4.26,4.26,0,0,1,.42.84V61.77h1.31V72.53h-1.11l-5.39-7.59A6.18,6.18,0,0,1,140,64Zm14,0h-1.29V61.77h1.29Zm6.31-10.76,3,8.53c.06.16.14.5.14.5a2.55,2.55,0,0,1,.15-.52l3-8.51H168L164,72.53h-1.36l-3.94-10.76Zm12.53,0h6.53v1.15h-5.22v3.29h4.22v1.14h-4.22v4h5.37l.19,1.15h-6.87Zm14.94,1.15h-1.76v9.61h-1.31V61.77h3.25c2.82,0,3.64,1.17,3.64,3.17a3.15,3.15,0,0,1-2.22,3.16l2.8,4.43h-1.5l-3.25-5.21c2.23,0,2.86-1.23,2.86-2.33C190.21,63.7,189.79,62.92,187.7,62.92Zm9.08,7.65a5.68,5.68,0,0,0,3.38,1.09c1.7,0,2.38-.86,2.38-1.93s-.81-1.47-2.49-2.13c-2-.78-3.14-1.44-3.14-3,0-1.8,1.17-3,3.48-3a5.16,5.16,0,0,1,3.19,1l-.57,1a3.85,3.85,0,0,0-2.62-.92c-1.68,0-2.22.87-2.22,1.9,0,.83,1,1.4,2.64,2s3,1.37,3,3.17-1.19,3-3.64,3a6.32,6.32,0,0,1-3.83-1.08Zm13.42,2h-1.29V61.77h1.29Zm12.16-9.61h-3v9.61h-1.29V62.92h-2.94V61.77h7.18Zm13.15-1.15-3.77,6.39v4.37h-1.28V68.16l-3.75-6.39h1.49l2.94,5.12,3-5.12Zm16.35,11c-3.87,0-4.5-2.56-4.5-5.58s1.12-5.58,4.79-5.58c3.83,0,4.49,2.31,4.49,5.58S255.51,72.74,251.86,72.74Zm0-10c-1.94,0-3.2,1.44-3.2,4.61s1.3,4.35,3.56,4.35c1.68,0,3.1-1.39,3.1-4.61S254.19,62.7,251.87,62.7Zm10-.93h6.54v1.15h-5.23v3.29h4.22v1.14h-4.22v5.18h-1.31ZM126.37,92.36l-1,2.94h-1.42l4-10.75h1.36l3.87,10.75h-1.51l-1-2.94Zm3.91-1.15-1.52-4.53a4.08,4.08,0,0,1-.18-1,4,4,0,0,1-.19,1l-1.62,4.53Zm10.8-5.51h-1.83v9.6h-1.31V84.55h3.33c2.82,0,3.64,1.16,3.64,3.17,0,1.86-1.13,3.52-4.45,3.52h-.05V90.1h.13c2.51,0,3.06-1.23,3.06-2.33C143.6,86.47,143.16,85.7,141.08,85.7Zm12,0H151.3v9.6H150V84.55h3.33c2.81,0,3.64,1.16,3.64,3.17,0,1.86-1.14,3.52-4.45,3.52h0V90.1h.13c2.51,0,3.06-1.23,3.06-2.33C155.65,86.47,155.21,85.7,153.12,85.7Zm10.22,8.46h4.77l.15,1.14H162V84.55h1.31Zm11.12,1.14h-1.29V84.55h1.29Zm5.68-10.75h6.53V85.7h-5.22V89h4.22v1.15h-4.22v4h5.37L187,95.3h-6.87Zm11.87,0h3.49c3.85,0,4.58,2.12,4.58,5.38s-1.21,5.37-4.85,5.37H192Zm1.29,9.61h2.28c1.7,0,3.21-1.14,3.21-4.34s-1.15-4.12-3.47-4.12h-2Zm19.41-.81a5.73,5.73,0,0,0,3.38,1.08c1.7,0,2.37-.86,2.37-1.92s-.8-1.48-2.49-2.14c-2-.78-3.13-1.44-3.13-3,0-1.79,1.16-3,3.47-3a5.15,5.15,0,0,1,3.19,1l-.57,1a3.8,3.8,0,0,0-2.62-.92c-1.68,0-2.21.87-2.21,1.91,0,.82,1,1.39,2.63,2s3,1.38,3,3.17-1.2,3-3.64,3a6.35,6.35,0,0,1-3.84-1.08Zm18.68-7.22a3.58,3.58,0,0,0-2.28-.66c-2.11,0-3.35,1.44-3.35,4.61s1.29,4.35,3.27,4.35a3.7,3.7,0,0,0,2.68-1.13l.74.89a4.71,4.71,0,0,1-3.57,1.32c-3.88,0-4.42-2.55-4.42-5.58s1.07-5.58,4.91-5.58a4.43,4.43,0,0,1,2.74.83Zm7.28,9.17h-1.29V84.55h1.29Zm5.68-10.75h6.54V85.7h-5.23V89h4.22v1.15h-4.22v4H251l.2,1.14h-6.88ZM257.53,95.3h-1.31V84.55h1.12l5.43,7.79a4.56,4.56,0,0,1,.42.84V84.55h1.31V95.3h-1.11L258,87.72a6.11,6.11,0,0,1-.47-.91Zm19.16-9.17a3.53,3.53,0,0,0-2.28-.66c-2.1,0-3.35,1.44-3.35,4.61s1.3,4.35,3.27,4.35A3.7,3.7,0,0,0,277,93.3l.74.89a4.71,4.71,0,0,1-3.57,1.32c-3.89,0-4.42-2.55-4.42-5.58s1.07-5.58,4.9-5.58a4.48,4.48,0,0,1,2.75.83Zm5.95-1.58h6.53V85.7H284V89h4.22v1.15H284v4h5.37l.19,1.14h-6.87Zm11.83,8.8a5.75,5.75,0,0,0,3.38,1.08c1.7,0,2.38-.86,2.38-1.92s-.81-1.48-2.49-2.14c-2-.78-3.14-1.44-3.14-3,0-1.79,1.17-3,3.48-3a5.14,5.14,0,0,1,3.18,1l-.56,1a3.85,3.85,0,0,0-2.62-.92c-1.68,0-2.22.87-2.22,1.91,0,.82,1,1.39,2.64,2s3,1.38,3,3.17-1.2,3-3.64,3A6.32,6.32,0,0,1,294,94.43ZM98.06,49.6H90.64V18.23h7.42V30.39h11V18.23h7.42V49.6h-7.42V36.31h-11Zm85.12-24.09a11.82,11.82,0,0,0-7.65-2.44c-4.28,0-6.95,3.89-6.95,11.27s2.82,10.47,7.93,10.47a6.9,6.9,0,0,0,4.56-2V37.53h-7.89V32.08h15.35V44.43c-2,2.54-5.54,5.92-13.05,5.92-12.44,0-14.41-7.61-14.41-16.44s3.56-16.43,15.16-16.43a18.82,18.82,0,0,1,10.47,3.19Zm28.41,24.65c-12.68,0-12.68-8.92-12.68-11.83V18.23h7.42V38.7c0,3.34,1.5,5.59,6.29,5.59,3.38,0,5-3.43,5-6.67V18.23h7.42V37.9C225.06,41.85,223.42,50.16,211.59,50.16Zm25.26-31.93h22v5.59H244.36v6.39H256.1v5.44H244.36V44H259l.79,5.59h-23ZM123.76,49.69h8.09L142.92,18h-6.73Zm19-11.93h-3.23l-2,5.79h6.92l2.06,6.1H155L144.74,22.9l-3.55,10.18Zm-82-19.51H73.48v3.21H65.13v3.67h6.75v3.13H65.13v4.81h8.43L74,36.28H60.82ZM31.68,21.46H27V36.28H22.72V21.46H18V18.25H31.68ZM42.27,36.28H38v-18h4.27v7h6.34v-7h4.27v18H48.61V28.64H42.27Z" transform="translate(-18.03 -17.48)"/></svg>